<svg width="28" height="39" viewBox="0 0 28 39" fill="none" xmlns="http://www.w3.org/2000/svg">
<g clip-path="url(#clip0_86_6255)">
<path d="M12.2958 30.5309C9.85089 30.5309 8.90234 32.083 8.90234 34.1275V38.8141C9.7393 38.9548 10.627 38.7438 10.627 37.6437V34.1275C10.627 32.9018 11.1951 32.063 12.2958 32.063C13.3965 32.063 13.9647 32.9018 13.9647 34.1275V37.6437C13.9647 38.7438 14.8523 38.9497 15.6893 38.8141V34.1275C15.6893 32.083 14.7407 30.5309 12.2958 30.5309Z" fill="#2F3136"/>
<path d="M5.06232 31.8822V35.3984C5.06232 36.624 4.4942 37.4629 3.39348 37.4629C2.29275 37.4629 1.72464 36.624 1.72464 35.3984V31.8822C1.72464 30.7821 0.836957 30.5761 0 30.7118V35.3984C0 37.4428 0.948551 38.995 3.39348 38.995C5.83841 38.995 6.78696 37.4428 6.78696 35.3984V30.7118C5.95 30.5711 5.06232 30.7821 5.06232 31.8822Z" fill="#2F3136"/>
<path d="M27.2789 36.5085C27.0963 36.7747 26.371 37.5533 25.255 37.493C23.9463 37.4277 23.1347 36.5637 23.1347 34.7654C23.1347 32.9671 23.992 32.1283 25.255 32.1283C26.3355 32.1283 27.0304 32.711 27.3144 33.0224C27.5478 32.9119 27.984 32.4799 27.984 32.0378C27.984 31.1939 26.5333 30.5962 25.3108 30.5962C23.0282 30.5962 21.3594 32.1785 21.3594 34.7654C21.3594 37.7542 23.0079 38.995 25.3108 38.995C26.863 38.995 27.9992 38.2013 27.9992 37.6789C27.9992 37.2017 27.4971 36.7195 27.2789 36.5035V36.5085Z" fill="#2F3136"/>
<path d="M17.8047 30.7118V37.6488C17.8047 38.7439 18.6924 38.9548 19.5293 38.8192V31.8822C19.5293 30.7821 18.6416 30.5762 17.8047 30.7118Z" fill="#2F3136"/>
<path d="M18.6098 27.3412C18.0264 27.3412 17.5547 27.8184 17.5547 28.4061C17.5547 28.9938 18.0264 29.471 18.6098 29.471C19.1931 29.471 19.6648 28.9938 19.6648 28.4061C19.6648 27.8184 19.1931 27.3412 18.6098 27.3412Z" fill="#2F3136"/>
<path d="M16.6747 18.0835C16.9131 16.8578 16.9131 15.6924 16.9131 15.0143V5.55564C16.9131 3.89799 17.3291 1.91886 19.3226 1.91886C21.316 1.91886 21.6102 3.85278 21.6102 5.47527H23.5479C23.5479 0.396832 20.3117 0 19.3175 0C16.5936 0 14.9704 2.07458 14.9704 5.55564V15.0093C14.9704 16.2249 14.8791 17.2295 14.6914 18.0483C14.9349 18.1136 15.2037 18.1538 15.503 18.1538C15.9139 18.1538 16.2994 18.1236 16.6697 18.0784L16.6747 18.0835Z" fill="#2F3136"/>
<path d="M11.2603 22.9308C13.8878 22.9308 15.2929 21.6398 16.0436 20.0625C15.8661 20.0726 15.6885 20.0826 15.5008 20.0826C14.9327 20.0826 14.4052 20.0023 13.9284 19.8516C13.3298 20.6452 12.4574 21.0119 11.2603 21.0119C6.4262 21.0119 6.29432 14.0347 6.29432 13.9644V8.74532C6.29432 6.69083 7.41533 5.75652 8.45519 5.75652C10.5349 5.75652 10.5958 8.4389 10.5958 8.74532H12.5334C12.5334 8.5243 12.5081 7.34887 12.0059 6.20861C11.3313 4.67654 10.0682 3.83264 8.45011 3.83264C6.41098 3.83264 4.35156 5.52043 4.35156 8.74532V13.9644C4.35156 16.4609 5.59432 22.9358 11.2603 22.9358V22.9308Z" fill="#2F3136"/>
<path d="M21.6024 11.4528C21.6024 15.4513 19.9386 17.6715 16.6669 18.0834C16.5401 18.7465 16.3422 19.4246 16.043 20.0626C20.8162 19.8415 23.5401 16.7422 23.5401 11.4578V6.54517H21.6024V11.4528Z" fill="#2F3136"/>
<path d="M10.5977 13.9543C10.5977 17.0788 11.815 19.1785 13.9303 19.8465C14.2701 19.3945 14.5237 18.7967 14.6911 18.0533C12.8397 17.556 12.5353 15.3407 12.5353 13.9543V9.56409H10.5977V13.9543Z" fill="#2F3136"/>
<path d="M23.5431 5.48035H21.6055V6.55028H23.5431V5.48035Z" fill="#2F3136"/>
<path d="M23.5431 5.48035H21.6055V6.55028H23.5431V5.48035Z" fill="#2F3136"/>
<path d="M12.5353 8.74036H10.5977V9.56416H12.5353V8.74036Z" fill="#2F3136"/>
<path d="M12.5353 8.74036H10.5977V9.56416H12.5353V8.74036Z" fill="#2F3136"/>
<path d="M15.5061 20.0777C15.6937 20.0777 15.8662 20.0626 16.0488 20.0576C16.3532 19.4247 16.5459 18.7415 16.6727 18.0785C16.3024 18.1237 15.9169 18.1538 15.5061 18.1538C15.2068 18.1538 14.9379 18.1136 14.6945 18.0483C14.5271 18.7968 14.2734 19.3895 13.9336 19.8416C14.4155 19.9923 14.9379 20.0727 15.5061 20.0727V20.0777Z" fill="#2F3136"/>
<path d="M15.5061 20.0777C15.6937 20.0777 15.8662 20.0626 16.0488 20.0576C16.3532 19.4247 16.5459 18.7415 16.6727 18.0785C16.3024 18.1237 15.9169 18.1538 15.5061 18.1538C15.2068 18.1538 14.9379 18.1136 14.6945 18.0483C14.5271 18.7968 14.2734 19.3895 13.9336 19.8416C14.4155 19.9923 14.9379 20.0727 15.5061 20.0727V20.0777Z" fill="url(#paint0_linear_86_6255)"/>
</g>
<defs>
<linearGradient id="paint0_linear_86_6255" x1="-5871.37" y1="16.7257" x2="-5859.53" y2="16.7257" gradientUnits="userSpaceOnUse">
<stop offset="1" stop-color="white"/>
</linearGradient>
<clipPath id="clip0_86_6255">
<rect width="28" height="39" fill="white"/>
</clipPath>
</defs>
</svg>
