<svg width="49" height="51" viewBox="0 0 49 51" fill="none" xmlns="http://www.w3.org/2000/svg">
<path d="M47.6052 7.46558C47.6052 5.64604 46.1312 4.17203 44.3118 4.17201H14.5955C12.7756 4.17201 11.2982 5.64645 11.2982 7.46558V46.974C11.2983 48.793 12.7756 50.2673 14.5955 50.2673H44.3118C46.1312 50.2673 47.6052 48.7934 47.6052 46.974V7.46558ZM48.212 46.974C48.212 49.1285 46.4663 50.8742 44.3118 50.8742H14.5955C12.4413 50.8742 10.6914 49.129 10.6914 46.974V7.46558C10.6914 5.31048 12.4412 3.56519 14.5955 3.56519H44.3118C46.4664 3.5652 48.212 5.3109 48.212 7.46558V46.974Z" fill="#114ABB"/>
<path d="M35.5323 10.6018C35.6999 10.6018 35.8357 10.7376 35.8357 10.9052C35.8357 11.0728 35.6999 11.2086 35.5323 11.2086H16.7878C16.6202 11.2086 16.4844 11.0728 16.4844 10.9052C16.4844 10.7376 16.6202 10.6018 16.7878 10.6018H35.5323Z" fill="#114ABB"/>
<path d="M42.117 17.1255C42.2846 17.1255 42.4205 17.2613 42.4205 17.4289C42.4205 17.5965 42.2846 17.7323 42.117 17.7323H16.7878C16.6202 17.7323 16.4844 17.5965 16.4844 17.4289C16.4844 17.2613 16.6202 17.1255 16.7878 17.1255H42.117Z" fill="#114ABB"/>
<path d="M39.1481 23.6545C39.3156 23.6546 39.4515 23.7904 39.4515 23.958C39.4515 24.1255 39.3156 24.2614 39.1481 24.2614H16.7878C16.6202 24.2614 16.4844 24.1255 16.4844 23.958C16.4844 23.7904 16.6202 23.6545 16.7878 23.6545H39.1481Z" fill="#114ABB"/>
<path d="M37.4881 30.1819C37.6556 30.1819 37.7915 30.3177 37.7915 30.4853C37.7915 30.6529 37.6556 30.7887 37.4881 30.7887H16.7878C16.6202 30.7887 16.4844 30.6529 16.4844 30.4853C16.4844 30.3177 16.6202 30.1819 16.7878 30.1819H37.4881Z" fill="#114ABB"/>
<path d="M42.117 36.7053C42.2846 36.7053 42.4205 36.8412 42.4205 37.0087C42.4205 37.1763 42.2846 37.3121 42.117 37.3121H16.7878C16.6202 37.3121 16.4844 37.1763 16.4844 37.0087C16.4844 36.8412 16.6202 36.7053 16.7878 36.7053H42.117Z" fill="#114ABB"/>
<path d="M42.117 43.2325C42.2846 43.2325 42.4205 43.3684 42.4205 43.536C42.4205 43.7035 42.2846 43.8394 42.117 43.8394H16.7878C16.6202 43.8394 16.4844 43.7035 16.4844 43.536C16.4844 43.3684 16.6202 43.2325 16.7878 43.2325H42.117Z" fill="#114ABB"/>
<path d="M6.43858 50.3998C7.134 50.3998 7.69782 49.8359 7.69784 49.1405L7.69784 8.34813L4.38071 0.756955L4.38063 0.756955C4.2934 0.557248 4.00999 0.557111 3.92262 0.756955L0.605487 8.34813L0.605486 49.1405C0.605505 49.8359 1.16921 50.3997 1.86475 50.3998L6.43858 50.3998ZM1.86475 51.0066C0.834087 51.0065 -0.0014184 50.1711 -0.00143743 49.1405L-0.00143564 8.28469C-0.00143564 8.24288 0.00721323 8.2015 0.0239559 8.16318L3.36648 0.514016C3.66579 -0.170935 4.6376 -0.171092 4.93685 0.514016L8.2793 8.16319L8.28522 8.17768C8.2981 8.21184 8.30469 8.2481 8.30469 8.28469L8.30469 49.1405C8.30467 50.171 7.46921 51.0066 6.43858 51.0066L1.86475 51.0066Z" fill="#114ABB"/>
<path d="M0.300738 49.1396L0.30074 8.28386L3.64326 0.634672C3.83659 0.192251 4.46423 0.192251 4.65748 0.634672L8 8.28386L8 49.1396C8 50.0026 7.30034 50.7023 6.43729 50.7023L1.86352 50.7023C1.00039 50.7023 0.300738 50.0026 0.300738 49.1396Z" fill="#EFFBD0"/>
<path d="M8 8.35513L8 8.28402L4.65756 0.634916C4.46415 0.192495 3.83659 0.192495 3.64334 0.634916L0.3009 8.28402L0.3009 8.35513L8 8.35513Z" fill="white"/>
<path d="M5.50391 2.57628L4.65562 0.63387C4.4618 0.192844 3.83448 0.192844 3.64066 0.63387L2.7924 2.57628L5.50391 2.57628Z" fill="#474B52"/>
<path d="M8 49.1412L8 44.6202L0.3009 44.6202L0.3009 49.1412C0.3009 50.0043 1.00048 50.7039 1.8636 50.7039L6.4373 50.7039C7.30042 50.7039 8 50.0043 8 49.1412Z" fill="#114ABB"/>
<path d="M4.45703 44.6243C4.45703 44.7919 4.3212 44.9278 4.15361 44.9278C3.98602 44.9278 3.85019 44.7919 3.85019 44.6243L3.85019 8.28779C3.85019 8.1202 3.98602 7.98437 4.15361 7.98437C4.3212 7.98437 4.45703 8.1202 4.45703 8.28779L4.45703 44.6243Z" fill="#114ABB"/>
<path d="M6.4385 50.4003C7.13395 50.4003 7.69783 49.8365 7.69784 49.141L7.69784 44.9253L0.605567 44.9253L0.605567 49.141C0.605575 49.8364 1.16932 50.4002 1.86483 50.4003L6.4385 50.4003ZM8.27849 8.16568C8.31945 8.25949 8.31036 8.36759 8.2543 8.45323C8.19825 8.53887 8.10282 8.59052 8.00046 8.59052L0.302387 8.59052C0.200031 8.59051 0.104605 8.53887 0.0485483 8.45323C-0.0075096 8.36759 -0.0165991 8.25949 0.0243574 8.16568L3.36584 0.513546L3.36616 0.512826C3.66626 -0.169966 4.63659 -0.169966 4.93669 0.512826L4.93701 0.513547L8.27849 8.16568ZM4.38079 0.756405C4.29301 0.558023 4.00984 0.558023 3.92206 0.756405L0.76609 7.98362L7.53684 7.98362L4.38079 0.756405ZM1.86483 51.0071C0.834125 51.0071 -0.00134878 50.1715 -0.00135637 49.141L-0.00135617 44.6218C-0.00133709 44.4542 0.134499 44.3184 0.302065 44.3184L8.00118 44.3184C8.16876 44.3184 8.30459 44.4542 8.30461 44.6218L8.30469 49.141C8.30468 50.1716 7.46911 51.0071 6.4385 51.0071L1.86483 51.0071Z" fill="#114ABB"/>
<path d="M5.78325 2.4552C5.8242 2.549 5.8151 2.65712 5.75906 2.74276C5.703 2.82841 5.60751 2.88005 5.50514 2.88005L2.79365 2.88005C2.69128 2.88005 2.59579 2.82841 2.53973 2.74276C2.48369 2.65711 2.47459 2.549 2.51554 2.4552L3.36381 0.512734L3.36413 0.512093C3.66423 -0.170693 4.63457 -0.170703 4.93466 0.512093L4.9349 0.512734L5.78325 2.4552ZM4.37876 0.755673C4.29089 0.557075 4.00717 0.557302 3.91971 0.756314L3.91971 0.756234L3.25727 2.27314L5.04152 2.27314L4.37876 0.755673Z" fill="#114ABB"/>
<g opacity="0.3">
<path d="M38.3826 7.24434C38.3932 7.2441 38.3931 7.23598 38.3824 7.23622C38.3717 7.23647 38.3719 7.24459 38.3826 7.24434ZM40.9998 7.46399C41.0891 7.47154 41.1266 7.42397 41.0354 7.41585C40.945 7.40806 40.9094 7.45653 40.9998 7.46399ZM37.8436 7.17963C37.9286 7.17758 37.9202 7.11335 37.8355 7.1154C37.7506 7.11737 37.7589 7.1816 37.8436 7.17963ZM37.5658 7.25222L37.5107 7.41922C37.5016 7.44653 37.4914 7.47384 37.4836 7.50115C37.4792 7.51657 37.4778 7.53224 37.4755 7.54766C37.4733 7.56144 37.4715 7.5735 37.4815 7.58662C37.4933 7.60213 37.5385 7.60688 37.5609 7.59244C37.584 7.5776 37.5891 7.56169 37.5977 7.54405C37.6045 7.53003 37.6111 7.51625 37.6154 7.50206L37.6386 7.42397L37.686 7.26469C37.6909 7.24837 37.6757 7.23229 37.6409 7.22868C37.6106 7.22557 37.5712 7.2359 37.5658 7.25222ZM38.2984 8.25747C38.3233 8.2569 38.3238 8.23787 38.2989 8.23853C38.2739 8.2391 38.2734 8.25804 38.2984 8.25747ZM37.2036 8.40732L37.7024 8.47794C37.862 8.5005 38.0228 8.52395 38.1877 8.53658C38.2361 8.54027 38.2641 8.50493 38.217 8.49525C38.0587 8.46261 37.8902 8.44078 37.7242 8.41831L37.2373 8.35229C37.1658 8.34253 37.1324 8.39723 37.2036 8.40732ZM39.5123 8.74032C39.6355 8.73737 39.6756 8.646 39.5465 8.64912C39.419 8.65216 39.3869 8.74328 39.5123 8.74032ZM39.0706 8.06029C39.209 8.05692 39.1979 7.97204 39.0561 7.9754C38.9817 7.97721 38.9642 7.99893 38.966 8.02018C38.9676 8.03076 38.9762 8.04126 38.9915 8.04889C39.0076 8.05644 39.0365 8.06111 39.0706 8.06029ZM39.1644 7.92709L39.2242 7.84523L39.2444 7.81833L39.2545 7.80487C39.2648 7.79134 39.261 7.77945 39.2575 7.76599L39.26 7.77847C39.2578 7.7628 39.2581 7.74714 39.242 7.73278C39.2212 7.71417 39.1569 7.7049 39.107 7.71917C39.0834 7.72597 39.0785 7.72712 39.0595 7.73606C39.0487 7.74131 39.0379 7.74656 39.0274 7.75165C39.0153 7.75788 39.002 7.76428 38.9923 7.771C38.9835 7.7783 38.9803 7.78913 38.9749 7.79733L38.9648 7.81324L38.9155 7.89018C38.9062 7.90486 38.9043 7.91963 38.9173 7.93365C38.9284 7.94571 38.953 7.95777 38.9794 7.96179C39.0068 7.96613 39.0542 7.96621 39.0875 7.95883C39.1189 7.95243 39.1546 7.94104 39.1644 7.92709ZM40.4979 7.72335C40.6466 7.72704 40.6535 7.64059 40.502 7.63625C40.3491 7.63387 40.3495 7.72073 40.4979 7.72335ZM40.9623 8.15363C41.008 8.17184 41.0528 8.18866 41.0974 8.20826L41.1097 8.21145C41.1163 8.21285 41.1232 8.21359 41.1302 8.21351C41.142 8.21383 41.1549 8.21285 41.164 8.20998C41.1821 8.20416 41.19 8.19407 41.1801 8.18447L41.1523 8.15823L41.1593 8.1652C41.1417 8.14764 41.1236 8.13 41.1043 8.11245C41.0942 8.10318 41.0707 8.09745 41.0483 8.09425C41.0329 8.09244 41.0176 8.0922 41.0021 8.09351C40.9901 8.09441 40.9797 8.09646 40.9708 8.09957C40.9604 8.10212 40.9523 8.10557 40.9467 8.11C40.9405 8.1141 40.9371 8.11845 40.9368 8.1232C40.9345 8.1278 40.935 8.13239 40.9386 8.13706C40.9429 8.14329 40.9509 8.14887 40.9623 8.15363Z" fill="#474B52"/>
<path d="M40.9707 8.13386C41.0177 8.18012 41.0629 8.22613 41.1063 8.27379L41.1681 8.34146L41.198 8.37582C41.2132 8.39346 41.2344 8.40814 41.2591 8.42372C41.3028 8.44989 41.3987 8.44071 41.3938 8.41011C41.3911 8.39412 41.3879 8.3782 41.3754 8.36204L41.3463 8.32718L41.2842 8.25459C41.2431 8.20571 41.1994 8.1606 41.1548 8.11295C41.1356 8.09212 41.0827 8.07842 41.0307 8.08506C40.9825 8.09089 40.9506 8.11402 40.9707 8.13386ZM40.3751 8.47884C40.5094 8.5406 40.6367 8.60253 40.7574 8.66872C40.8192 8.70153 40.8759 8.73721 40.9302 8.77305C40.9588 8.79142 40.9847 8.81267 41.0164 8.83096C41.0508 8.85114 41.0907 8.87312 41.1405 8.88739C41.1706 8.89543 41.2145 8.88255 41.2088 8.86722C41.2001 8.84384 41.167 8.8235 41.1391 8.80275C41.1104 8.78249 41.0709 8.76542 41.0356 8.74697C40.9701 8.71457 40.9047 8.68217 40.8407 8.65051C40.7075 8.58374 40.5678 8.5201 40.4202 8.45858C40.3936 8.44767 40.35 8.46752 40.3751 8.47884ZM41.6244 9.23786C41.7107 9.26805 41.7788 9.20226 41.6891 9.17085C41.6001 9.13976 41.537 9.20727 41.6244 9.23786ZM40.1515 9.2459C40.2412 9.24418 40.2772 9.16774 40.1838 9.16938C40.0911 9.17159 40.0609 9.24812 40.1515 9.2459ZM40.1162 9.8422C40.0378 9.84523 39.9595 9.85048 39.8815 9.85573C39.8652 9.8568 39.8409 9.86779 39.8305 9.87673C39.8192 9.88632 39.8124 9.89632 39.8106 9.9074C39.8068 9.93085 39.8292 9.95013 39.8639 9.95071C39.8513 9.95046 39.8674 9.95079 39.8687 9.95079L39.8808 9.95095L39.9074 9.95136L39.9585 9.95218L40.0809 9.95572C40.1299 9.95785 40.1828 9.93151 40.1952 9.89657C40.2007 9.88082 40.1972 9.86787 40.1842 9.85712C40.1677 9.84375 40.1454 9.84121 40.1162 9.8422ZM39.3919 10.1382C39.3939 10.1462 39.3961 10.1544 39.3982 10.1625L39.3958 10.1536L39.4028 10.1846C39.4043 10.1909 39.4076 10.196 39.4138 10.2001C39.4195 10.2038 39.427 10.2065 39.4353 10.2064C39.4418 10.2063 39.4484 10.2051 39.4546 10.2029C39.4634 10.1999 39.4728 10.1923 39.4763 10.1855L39.5029 10.1326C39.5098 10.1189 39.5059 10.1023 39.4925 10.0933C39.4819 10.0862 39.4679 10.082 39.4519 10.0828C39.4371 10.0836 39.4211 10.0889 39.4102 10.0968C39.4022 10.1025 39.3967 10.1093 39.3934 10.1168C39.3903 10.1242 39.3898 10.1312 39.3919 10.1382Z" fill="#474B52"/>
<path d="M39.4419 10.1182L39.2933 10.1762C39.2813 10.181 39.2893 10.1941 39.3014 10.1896L39.4525 10.1345C39.4683 10.1288 39.4578 10.1121 39.4419 10.1182ZM38.3346 10.0312C38.431 10.0289 38.4431 9.95483 38.3455 9.95721C38.249 9.95951 38.237 10.0336 38.3346 10.0312ZM37.0869 10.1491L37.2423 10.2828L37.315 10.3457L37.3531 10.3784L37.3695 10.3924C37.3837 10.4046 37.3976 10.4106 37.422 10.4186C37.4667 10.4331 37.5474 10.4146 37.5423 10.3856C37.5397 10.3707 37.5362 10.3603 37.5198 10.3478C37.5133 10.3432 37.5065 10.3384 37.4999 10.3337L37.457 10.3033L37.3599 10.2346C37.3047 10.1953 37.2494 10.1559 37.1939 10.1165C37.1496 10.0852 37.0478 10.1154 37.0869 10.1491ZM38.0309 10.6341C38.1629 10.6309 38.1612 10.5305 38.0287 10.5337C37.8967 10.5369 37.8984 10.6373 38.0309 10.6341ZM39.3003 10.833C39.3195 10.8325 39.3192 10.8024 39.2998 10.8029C39.2802 10.8034 39.2813 10.8335 39.3003 10.833ZM39.9635 10.6337C39.9721 10.6316 39.9811 10.6294 39.9898 10.6272L40.0074 10.6228L39.9985 10.6251L40.0268 10.6186C40.0379 10.616 40.0502 10.6076 40.054 10.5976C40.0555 10.5937 40.056 10.59 40.0554 10.5865C40.0545 10.5811 40.0498 10.5781 40.0446 10.5761L40.0434 10.5757L40.0485 10.5778L40.0163 10.5647L40.0237 10.5679C40.0157 10.5643 40.0077 10.561 39.9993 10.558C39.9871 10.5536 39.9676 10.5565 39.9533 10.5656C39.9418 10.5729 39.9324 10.5823 39.9277 10.593C39.9233 10.6028 39.9233 10.6135 39.9274 10.6209C39.9306 10.6263 39.9354 10.6302 39.942 10.6325C39.9485 10.6347 39.9556 10.635 39.9635 10.6337Z" fill="#474B52"/>
<path d="M40.0206 10.634C40.1295 10.5492 40.2473 10.4687 40.3738 10.3917C40.435 10.3544 40.498 10.3198 40.5632 10.2843C40.6051 10.2629 40.6448 10.2396 40.6865 10.2167C40.7155 10.2011 40.7392 10.1808 40.7664 10.1642C40.804 10.1409 40.7792 10.0974 40.7281 10.1146C40.7023 10.1232 40.6757 10.1282 40.6507 10.1371C40.6297 10.145 40.6094 10.1555 40.5896 10.1647C40.555 10.1806 40.5219 10.1966 40.4897 10.2144C40.4221 10.2533 40.3569 10.2906 40.2938 10.3316C40.1696 10.4106 40.0542 10.4936 39.9478 10.579C39.9207 10.6007 39.9201 10.6354 39.9379 10.6489C39.9586 10.6644 39.9928 10.6552 40.0206 10.634ZM41.0817 9.92433C41.0974 9.95238 41.1123 9.97986 41.1264 10.008L41.1426 10.0442C41.1496 10.0599 41.159 10.0745 41.1678 10.0896C41.1738 10.099 41.1919 10.1035 41.2039 10.1016C41.2183 10.0988 41.224 10.0889 41.2223 10.0776C41.22 10.0611 41.2172 10.0463 41.2118 10.0313L41.1983 9.99429C41.1882 9.96715 41.1782 9.93811 41.1662 9.91301C41.1596 9.89842 41.1373 9.88627 41.1137 9.89013C41.1029 9.89193 41.0924 9.89587 41.0869 9.90251C41.0818 9.90858 41.0778 9.91727 41.0817 9.92433Z" fill="#474B52"/>
<path d="M41.1566 9.97563L41.2983 9.95348C41.3453 9.9484 41.3923 9.94487 41.4404 9.94102C41.4868 9.93749 41.5319 9.94069 41.5778 9.93847C41.5997 9.9379 41.6222 9.93462 41.6428 9.93511C41.6753 9.93495 41.7044 9.9361 41.7344 9.92945C41.777 9.92035 41.7615 9.86112 41.7133 9.84423C41.6551 9.82971 41.5991 9.82725 41.5423 9.82652C41.4905 9.82717 41.4408 9.83193 41.391 9.83685L41.2454 9.85727C41.197 9.86589 41.1486 9.87647 41.1013 9.88631C41.0661 9.89386 41.0488 9.92584 41.0644 9.94824C41.0818 9.97333 41.1193 9.98227 41.1566 9.97563ZM42.1511 9.73293C42.1714 9.744 42.1881 9.75917 42.2056 9.77295L42.1945 9.76434L42.2232 9.78805C42.2364 9.79879 42.2507 9.80141 42.2601 9.7942C42.2688 9.78739 42.2721 9.77106 42.2653 9.75458L42.2487 9.71579L42.2544 9.72957C42.2446 9.70365 42.2335 9.67863 42.2184 9.656C42.21 9.64443 42.2 9.63459 42.1885 9.62655C42.1771 9.61859 42.1655 9.61343 42.154 9.61113C42.1366 9.60859 42.1215 9.61187 42.1122 9.62311C42.1036 9.63336 42.1009 9.65042 42.1048 9.66764C42.1078 9.68019 42.1134 9.69241 42.1219 9.70439C42.1301 9.71554 42.1399 9.72514 42.1511 9.73293ZM42.3806 9.81233C42.4734 9.89164 42.5658 9.92084 42.6407 9.89287C42.7047 9.87277 42.7686 9.76984 42.736 9.6254C42.7245 9.572 42.6691 9.53239 42.6653 9.57414C42.6617 9.61638 42.657 9.6532 42.6425 9.67887L42.6368 9.68831C42.6368 9.68831 42.6288 9.69864 42.6334 9.69339C42.6288 9.69864 42.624 9.70316 42.6189 9.70734C42.6087 9.71571 42.5972 9.72145 42.5854 9.72612C42.5619 9.73555 42.5328 9.7404 42.4993 9.73416L42.4846 9.73112C42.4928 9.73309 42.4879 9.7321 42.4825 9.73022C42.4733 9.72702 42.4642 9.72358 42.4549 9.71923C42.4381 9.7107 42.4207 9.70044 42.4019 9.68798C42.3693 9.66575 42.338 9.67773 42.3334 9.71037C42.3288 9.74466 42.3529 9.78698 42.3806 9.81233ZM43.0088 9.21545C43.0242 9.23924 43.0392 9.22776 43.0237 9.20381C43.007 9.18093 42.992 9.19273 43.0088 9.21545ZM42.3325 7.8129V7.79896V7.81036C42.3338 7.79379 42.3358 7.7773 42.3359 7.7604C42.3378 7.7563 42.3368 7.75163 42.3329 7.7463C42.3309 7.74113 42.3259 7.73572 42.3181 7.73006L42.3013 7.71915C42.2921 7.7139 42.2819 7.70939 42.2706 7.7057C42.2528 7.6993 42.2323 7.69397 42.2154 7.69282C42.1936 7.69143 42.1775 7.69356 42.1679 7.70053L42.1504 7.71308L42.1607 7.70636C42.1445 7.71669 42.1287 7.72727 42.1136 7.7381C42.1018 7.74655 42.1054 7.75967 42.1159 7.77238C42.1243 7.78116 42.1364 7.79092 42.1527 7.79969C42.1648 7.80666 42.1784 7.81241 42.1933 7.817C42.2072 7.82234 42.2215 7.82627 42.2363 7.82873C42.2512 7.83176 42.2647 7.83299 42.2767 7.83258C42.2904 7.83332 42.3017 7.83226 42.3106 7.82931C42.3227 7.82595 42.33 7.82044 42.3325 7.8129ZM41.0851 7.26287C41.1995 7.2737 41.2192 7.21276 41.1032 7.20136C40.9869 7.19069 40.9707 7.2527 41.0851 7.26287ZM42.6578 7.81282L42.7057 7.84505L42.689 7.83381C42.7602 7.87934 42.8264 7.93413 42.894 7.98572C42.915 8.00081 42.9455 8.01237 42.9588 8.01032C42.9743 8.00811 42.9706 7.99359 42.9539 7.97563C42.9628 7.98514 42.9505 7.97194 42.9487 7.97013C42.9454 7.96636 42.9418 7.96291 42.9382 7.95955L42.9142 7.93675L42.859 7.8841C42.8279 7.85424 42.7967 7.82413 42.7632 7.79764C42.7498 7.78649 42.7218 7.77312 42.7033 7.7668C42.6827 7.75967 42.6588 7.75557 42.6462 7.75803C42.6212 7.76303 42.6197 7.78715 42.6578 7.81282ZM43.5414 9.01147C43.5479 9.03518 43.5523 9.05872 43.5579 9.08226C43.5628 9.10252 43.5674 9.12245 43.5725 9.14353L43.5676 9.12318L43.582 9.19019C43.5849 9.20397 43.5908 9.2189 43.5978 9.23235C43.6046 9.24581 43.6124 9.25934 43.6204 9.26681C43.6269 9.27288 43.633 9.27664 43.6386 9.27771C43.6456 9.27911 43.6534 9.27214 43.6544 9.26082L43.6572 9.22752C43.6583 9.21128 43.6593 9.19438 43.6589 9.17724C43.6583 9.1532 43.6577 9.12901 43.6572 9.10473C43.6561 9.09325 43.6533 9.08086 43.6485 9.06765C43.6444 9.05527 43.6387 9.04289 43.6316 9.03059C43.6249 9.01837 43.6176 9.00778 43.6098 8.99876C43.602 8.98842 43.5947 8.98014 43.5865 8.97465C43.5705 8.96382 43.5552 8.95881 43.5475 8.96718L43.5414 8.97702C43.5386 8.98572 43.5386 8.9972 43.5414 9.01147ZM40.8087 6.47719C41.079 6.5766 41.3294 6.68971 41.5625 6.81471C41.5901 6.82939 41.6428 6.82077 41.6163 6.80601C41.3911 6.67716 41.1466 6.56364 40.8846 6.45988C40.8385 6.44143 40.7605 6.4589 40.8087 6.47719ZM38.8027 6.65903C38.8352 6.65821 38.8319 6.63369 38.7996 6.63451C38.7671 6.63525 38.7704 6.65977 38.8027 6.65903ZM37.3016 6.58316L37.3151 6.62942L37.312 6.61925L37.3229 6.66108C37.3255 6.67068 37.3314 6.6797 37.3379 6.68873C37.3464 6.70062 37.3673 6.71086 37.3954 6.70996C37.4224 6.70906 37.4462 6.70037 37.454 6.68732C37.4589 6.67912 37.4649 6.67059 37.4673 6.66214L37.4707 6.64697L37.4767 6.61737L37.4742 6.62778L37.486 6.57824C37.4921 6.55101 37.4472 6.5282 37.3919 6.52976C37.3361 6.53116 37.2943 6.55601 37.3016 6.58316ZM39.5715 6.72194C39.7424 6.71784 39.7488 6.63606 39.5743 6.64033C39.4002 6.64443 39.4002 6.72604 39.5715 6.72194Z" fill="#474B52"/>
<path d="M39.7451 6.68074C39.7622 6.68033 39.7632 6.67221 39.7461 6.67262C39.7289 6.67303 39.728 6.68115 39.7451 6.68074ZM41.5107 6.40072C41.7376 6.46503 41.9553 6.53876 42.1707 6.62398C42.2502 6.65424 42.3194 6.63522 42.251 6.60159C42.0705 6.51014 41.8744 6.42656 41.6702 6.35447C41.6164 6.3338 41.5271 6.32772 41.4862 6.34183C41.4498 6.3543 41.4472 6.38342 41.5107 6.40072ZM44.0236 7.90622C44.1078 7.99619 44.1507 7.95043 44.0656 7.85955C43.9796 7.769 43.939 7.81698 44.0236 7.90622ZM44.3077 9.55968C44.344 9.70445 44.4186 9.64735 44.3804 9.50054C44.3378 9.35552 44.2682 9.41664 44.3077 9.55968ZM43.8307 10.0221C43.8241 10.0465 43.8174 10.0713 43.8106 10.0961L43.816 10.0768C43.8005 10.13 43.7854 10.1821 43.7693 10.2382C43.7636 10.2592 43.7637 10.2925 43.7713 10.3157C43.7782 10.3375 43.7913 10.3535 43.8012 10.3419C43.8217 10.3179 43.8411 10.2895 43.86 10.2599L43.8524 10.271C43.8694 10.2465 43.8862 10.2215 43.9026 10.1953C43.9119 10.1805 43.916 10.1503 43.9168 10.1214C43.9173 10.0862 43.909 10.0493 43.8979 10.0228C43.8747 9.96995 43.844 9.97216 43.8307 10.0221ZM43.3441 11.3683C43.3454 11.4757 43.4172 11.4773 43.4158 11.3661C43.4139 11.2563 43.3422 11.2596 43.3441 11.3683ZM43.2229 11.2382C43.1508 11.2402 43.0788 11.2434 43.0071 11.2477L42.8997 11.2549C42.866 11.2573 42.8239 11.2541 42.7913 11.29C42.7792 11.3034 42.7792 11.3412 42.7893 11.3513C42.8182 11.3802 42.8616 11.3693 42.8952 11.3665L43.0021 11.3586C43.0736 11.3538 43.1451 11.3499 43.2167 11.3471C43.247 11.3461 43.2533 11.2373 43.2229 11.2382ZM42.3472 11.8891L42.2752 12.0103C42.2504 12.0509 42.2242 12.0894 42.2027 12.1337C42.1953 12.1492 42.1972 12.1773 42.2045 12.1898C42.213 12.2044 42.225 12.2072 42.2365 12.1979C42.2255 12.2068 42.2453 12.1908 42.2483 12.1882C42.2516 12.1854 42.2547 12.1824 42.2578 12.179L42.2771 12.1579L42.3216 12.1095L42.3984 12.0226C42.4235 11.9941 42.4331 11.9352 42.4173 11.8936C42.4019 11.853 42.3691 11.8515 42.3472 11.8891ZM41.0804 11.6858C41.0806 11.7228 41.1334 11.7056 41.1332 11.6669C41.1329 11.6284 41.08 11.6484 41.0804 11.6858ZM40.5996 11.6069C40.5345 11.6672 40.4683 11.7256 40.402 11.782C40.3657 11.813 40.3858 11.8444 40.4224 11.8152C40.4899 11.7607 40.5565 11.7044 40.623 11.646C40.6597 11.6139 40.6355 11.5734 40.5996 11.6069ZM40.1753 11.4235L40.1701 11.4213L40.1677 11.4202C40.1661 11.4196 40.1651 11.4196 40.1629 11.4193C40.1604 11.4185 40.1573 11.4187 40.1538 11.4198C40.151 11.4205 40.1482 11.421 40.1456 11.4213L40.1526 11.4211L40.1303 11.4206C40.1223 11.4205 40.1109 11.426 40.1036 11.4355C40.1007 11.4392 40.0985 11.443 40.097 11.4468C40.0947 11.4526 40.0958 11.4569 40.0977 11.4603L40.1034 11.4723L40.1018 11.4672L40.1046 11.4796L40.1035 11.4726C40.1035 11.4748 40.1038 11.4763 40.1043 11.4784C40.1051 11.4824 40.1048 11.4827 40.107 11.4858C40.1083 11.4878 40.1096 11.4895 40.1111 11.4912L40.1162 11.4966C40.1208 11.5014 40.1307 11.5008 40.1401 11.4981C40.1471 11.4957 40.1541 11.4919 40.1611 11.4866C40.1662 11.4828 40.1706 11.4786 40.1743 11.4736C40.1786 11.469 40.1818 11.4643 40.1841 11.4592C40.1868 11.4539 40.1881 11.4492 40.1881 11.4448C40.189 11.4398 40.1885 11.4357 40.1865 11.4323C40.1842 11.4278 40.1804 11.4249 40.1753 11.4235ZM39.5249 12.2143C39.5364 12.2274 39.6348 12.1368 39.6188 12.1201C39.6038 12.1029 39.5134 12.2018 39.5249 12.2143ZM41.7412 11.0632C41.7468 11.1398 41.828 11.0939 41.8221 11.0138C41.8144 10.9342 41.7339 10.9866 41.7412 11.0632ZM41.3814 12.1191L41.3678 12.1578L41.3734 12.1419C41.3491 12.2065 41.325 12.2708 41.3005 12.3362C41.2945 12.3527 41.2947 12.3694 41.3064 12.3803C41.3162 12.3894 41.3341 12.3899 41.3435 12.3759C41.3808 12.3205 41.4169 12.261 41.4523 12.1989L41.4441 12.2125L41.4628 12.1814C41.4829 12.1475 41.4818 12.1019 41.4563 12.0827C41.4332 12.0651 41.395 12.0809 41.3814 12.1191ZM42.1081 11.0331C42.1109 11.1446 42.215 11.0866 42.2117 10.9697C42.2066 10.8531 42.1036 10.9218 42.1081 11.0331ZM41.3976 12.472L41.3766 12.5781L41.3716 12.6045L41.367 12.6467L41.3594 12.7327C41.3553 12.7878 41.3924 12.81 41.4044 12.7609C41.417 12.7097 41.4281 12.6548 41.4387 12.6031L41.4698 12.499C41.4771 12.4743 41.4644 12.4433 41.4455 12.4379C41.4269 12.4324 41.4026 12.4455 41.3976 12.472ZM42.4866 12.5273C42.4869 12.5894 42.513 12.6204 42.539 12.6183C42.5651 12.6149 42.591 12.5799 42.5908 12.515C42.5904 12.3845 42.4862 12.4022 42.4866 12.5273ZM42.7183 12.6112C42.7896 12.7026 42.8774 12.7489 42.9612 12.7272C43.0055 12.7156 43.0486 12.6861 43.0885 12.6456C43.1343 12.6025 43.1687 12.5097 43.1959 12.4125C43.2149 12.3438 43.1747 12.2878 43.1502 12.333C43.1181 12.3914 43.076 12.4271 43.0376 12.4558C43.0057 12.4796 42.9735 12.4898 42.94 12.4916C42.9254 12.4923 42.9109 12.4926 42.8964 12.4901C42.8887 12.4888 42.881 12.487 42.8734 12.4846L42.8619 12.4807C42.8677 12.4829 42.8671 12.4824 42.8601 12.4794C42.8452 12.4708 42.8305 12.4624 42.8162 12.4507C42.8143 12.4491 42.795 12.431 42.8033 12.4396C42.7964 12.4325 42.7898 12.4245 42.7832 12.4164C42.7567 12.3837 42.7209 12.3969 42.7029 12.4504C42.6858 12.5011 42.6917 12.5771 42.7183 12.6112ZM44.0582 11.4783C44.059 11.7058 44.1872 11.6471 44.1862 11.4133C44.1838 11.1787 44.0567 11.2532 44.0582 11.4783ZM44.6332 9.86077C44.636 9.87545 44.6437 9.87177 44.6408 9.85701C44.6379 9.84232 44.6303 9.84609 44.6332 9.86077ZM42.1743 6.31493L42.004 6.27908C41.9896 6.27613 41.9737 6.27597 41.9716 6.28057C41.9695 6.28491 41.9786 6.29115 41.994 6.29467L42.1649 6.33445C42.1821 6.33913 42.2009 6.33871 42.2026 6.33338C42.2043 6.32805 42.1929 6.3196 42.1743 6.31493ZM39.6158 6.13063L39.4465 6.13735L39.4628 6.1367L39.414 6.13858C39.3998 6.13916 39.3811 6.14334 39.3737 6.1467C39.3664 6.15006 39.3627 6.15351 39.3632 6.15736C39.3641 6.16549 39.3872 6.17262 39.4176 6.17229L39.6107 6.17057C39.6479 6.17024 39.6846 6.15958 39.6845 6.14916C39.6845 6.14392 39.6789 6.13859 39.6649 6.13531C39.6521 6.13219 39.6343 6.12989 39.6158 6.13063ZM37.2737 6.40261C37.3702 6.40031 37.3822 6.32625 37.2847 6.32863C37.1882 6.33092 37.1762 6.4049 37.2737 6.40261ZM35.4723 6.91179L35.7094 7.08855C35.7472 7.11685 35.7916 7.14243 35.8329 7.16942C35.8769 7.19919 35.9199 7.22839 35.9634 7.25776C35.9939 7.27851 36.072 7.25826 36.048 7.23406C36.0161 7.20224 35.9837 7.16991 35.9519 7.13825C35.9192 7.1047 35.8915 7.07051 35.8547 7.03795C35.7864 6.97668 35.7187 6.91606 35.6505 6.85479C35.6236 6.83092 35.5528 6.82592 35.5066 6.84069C35.459 6.85586 35.4417 6.88899 35.4723 6.91179ZM36.952 8.09109L37.3403 8.24029L37.5317 8.31378C37.5976 8.33912 37.66 8.36857 37.7398 8.383C37.7735 8.38907 37.8194 8.37267 37.795 8.35463C37.771 8.33691 37.7495 8.32436 37.7157 8.3109L37.6233 8.274L37.4269 8.19567L37.0394 8.04114C36.9748 8.01547 36.8866 8.06591 36.952 8.09109Z" fill="#474B52"/>
<path d="M36.9639 8.01847L36.4273 8.11116L36.1641 8.15659C36.0679 8.17324 35.9297 8.18743 35.868 8.22926C35.8361 8.25092 35.8702 8.2816 35.9167 8.28684C35.8592 8.28036 35.9667 8.28931 35.9736 8.28923C35.9975 8.28882 36.0194 8.28496 36.0422 8.28135C36.0911 8.27347 36.1401 8.2656 36.1888 8.25781L36.4641 8.21089L37.0248 8.11534C37.1533 8.09353 37.0928 7.99625 36.9639 8.01847ZM37.1862 8.88396C37.2951 8.9166 37.4037 8.94916 37.513 8.98197C37.6247 9.01486 37.7468 9.04111 37.8632 9.07007C37.9042 9.08032 37.9514 9.04956 37.9123 9.03546L37.7532 8.9787C37.697 8.95893 37.6429 8.93744 37.5838 8.91972L37.2731 8.82655C37.2406 8.81679 37.1974 8.81867 37.1726 8.83508C37.1505 8.84968 37.1536 8.87412 37.1862 8.88396ZM38.2099 9.08966L38.0988 9.09336C38.0858 9.09377 38.0863 9.10484 38.0994 9.10459L38.2076 9.10296C38.2149 9.10288 38.2216 9.10041 38.2222 9.09664C38.2228 9.09336 38.2172 9.08942 38.2099 9.08966ZM36.3258 8.91382L36.6234 8.96097L36.762 8.98279C36.7956 8.98812 36.8304 8.99141 36.8649 8.99535C36.8988 8.9992 36.933 9.00231 36.9574 8.98582C36.9845 8.96745 36.9646 8.94966 36.9305 8.94039C36.9079 8.93415 36.8835 8.92882 36.8597 8.92333C36.8133 8.91258 36.764 8.90463 36.7159 8.89577L36.4044 8.83827C36.3634 8.83065 36.31 8.83614 36.2895 8.85821C36.2721 8.87674 36.2808 8.90668 36.3258 8.91382ZM39.4665 9.32121C39.5683 9.31875 39.567 9.23181 39.4618 9.23435C39.3565 9.23689 39.3652 9.32367 39.4665 9.32121ZM39.727 9.35345L39.9374 9.39774C40.0181 9.41513 40.0971 9.43579 40.1855 9.44079C40.2346 9.4435 40.2643 9.4047 40.2334 9.38953C40.1724 9.35951 40.0871 9.34393 40.0081 9.32654L39.783 9.27757C39.7488 9.27027 39.7026 9.28676 39.689 9.30571C39.6732 9.32769 39.6933 9.34639 39.727 9.35345ZM37.2435 9.5863C37.2981 9.6201 37.353 9.65405 37.408 9.68809L37.3919 9.67817C37.4217 9.6967 37.4472 9.71663 37.4881 9.72959C37.505 9.73492 37.5203 9.7387 37.5414 9.73878C37.5596 9.73886 37.5795 9.73665 37.5946 9.73091C37.6269 9.71869 37.6402 9.69925 37.6284 9.68063C37.635 9.69113 37.6245 9.67439 37.6233 9.67259C37.6187 9.66578 37.6144 9.65906 37.6066 9.6529L37.5836 9.63494L37.5392 9.60025L37.447 9.52921L37.4621 9.54119L37.4374 9.52167C37.421 9.50863 37.4023 9.49945 37.3729 9.49387C37.339 9.48747 37.3 9.49165 37.2702 9.50158C37.2101 9.52167 37.2013 9.55981 37.2435 9.5863ZM34.6403 9.49313C34.7612 9.49026 34.7793 9.39724 34.6569 9.40019C34.536 9.40306 34.5178 9.49608 34.6403 9.49313ZM33.6636 9.29447C33.7572 9.29226 33.7727 9.22016 33.6779 9.22246C33.5842 9.22467 33.5688 9.29677 33.6636 9.29447ZM32.3588 8.66529C32.3863 8.66463 32.3857 8.6438 32.3582 8.64445C32.3309 8.64511 32.3314 8.66595 32.3588 8.66529ZM32.3849 8.58278C32.4822 8.56309 32.5305 8.5147 32.5335 8.46615C32.5348 8.44646 32.5265 8.42291 32.5042 8.40659C32.4683 8.38035 32.4181 8.3642 32.3529 8.36092C32.3279 8.3596 32.2996 8.37199 32.2943 8.38355C32.2884 8.39635 32.298 8.41004 32.3218 8.41627L32.3296 8.41841C32.3327 8.41923 32.3344 8.42103 32.3315 8.4189C32.3277 8.41611 32.3323 8.41939 32.3341 8.42021L32.3392 8.42243C32.3408 8.42317 32.3494 8.42735 32.3403 8.42284C32.3315 8.41849 32.3392 8.42251 32.3407 8.42341L32.3468 8.42743C32.3485 8.42866 32.3545 8.43317 32.3475 8.42784C32.3403 8.42226 32.3488 8.42965 32.3505 8.43145C32.3519 8.43309 32.3588 8.4417 32.3536 8.4349C32.3484 8.42825 32.354 8.43678 32.3549 8.43867L32.3587 8.44711L32.3623 8.45392L32.3635 8.45704C32.3655 8.46156 32.3605 8.44613 32.3617 8.4522C32.3626 8.45696 32.3633 8.46172 32.3632 8.46656L32.3628 8.47057C32.3631 8.47467 32.3655 8.45868 32.3636 8.46532L32.3615 8.47246C32.3596 8.47747 32.3569 8.48238 32.3537 8.48722L32.3611 8.47624C32.3564 8.48272 32.3505 8.48886 32.3432 8.49477L32.356 8.48485C32.352 8.48788 32.3477 8.49083 32.3429 8.49362L32.3344 8.49821C32.3541 8.48722 32.3476 8.49222 32.3409 8.49493L32.332 8.49829C32.3286 8.49944 32.315 8.50346 32.3312 8.49879C32.3473 8.49411 32.3335 8.49797 32.3297 8.49879L32.3172 8.50117C32.2716 8.50896 32.2474 8.53956 32.2665 8.56006C32.2872 8.58212 32.3372 8.59238 32.3849 8.58278ZM32.2155 7.32105C32.3174 7.31859 32.3218 7.24075 32.2192 7.24321C32.1174 7.24567 32.1128 7.32351 32.2155 7.32105ZM32.5431 7.17678L33.08 7.1082C33.0945 7.10632 33.091 7.09533 33.0763 7.09705L32.535 7.16029C32.513 7.16283 32.5212 7.17957 32.5431 7.17678ZM33.5854 6.83401L33.8075 7.03865C33.8179 7.04825 33.8478 7.03956 33.8381 7.02988L33.63 6.8222C33.6143 6.80654 33.5683 6.81834 33.5854 6.83401ZM34.1682 8.02742L34.1185 8.03324L34.1458 8.03004L33.9988 8.04579L34.0205 8.04324C34.0065 8.04489 33.9921 8.04644 33.9784 8.04808C33.9702 8.04964 33.9581 8.05202 33.9529 8.05301L33.9362 8.05891L33.9227 8.06694C33.9133 8.07424 33.9097 8.0827 33.9113 8.09106C33.914 8.10599 33.935 8.11936 33.9652 8.12329C33.9485 8.12108 33.9452 8.12067 33.9552 8.12198L33.9652 8.12329L33.9806 8.12527C33.9909 8.12658 34.0017 8.12698 34.0124 8.12756L34.0995 8.13223L34.0733 8.13051L34.1682 8.1365C34.1981 8.13814 34.2271 8.13298 34.2513 8.12428C34.2805 8.11387 34.2947 8.09647 34.2947 8.07974C34.2948 8.06465 34.2843 8.05235 34.2627 8.04201C34.2387 8.03053 34.203 8.02348 34.1682 8.02742Z" fill="#474B52"/>
<path d="M34.1059 8.0872L34.1739 8.35475C34.1959 8.44104 34.2077 8.52987 34.2494 8.61402C34.2575 8.63034 34.3149 8.63133 34.3147 8.61189C34.3136 8.52306 34.2812 8.43439 34.2597 8.34663L34.1949 8.08351C34.1881 8.05587 34.0988 8.05948 34.1059 8.0872ZM37.2558 9.43775C37.3952 9.43439 37.3767 9.32883 37.2375 9.33219C37.098 9.33556 37.1165 9.44112 37.2558 9.43775ZM36.8981 10.215L37.2827 10.3944C37.4066 10.4522 37.5267 10.5114 37.6635 10.562C37.7288 10.5862 37.8037 10.544 37.7505 10.5146C37.7176 10.4965 37.6879 10.4767 37.6518 10.4602C37.6214 10.4464 37.5906 10.4324 37.5601 10.4186L37.3766 10.3353L36.985 10.1576C36.9572 10.1449 36.9061 10.1518 36.8846 10.1661C36.8585 10.1832 36.8704 10.2021 36.8981 10.215ZM37.891 11.2421L37.9456 11.2844C37.9691 11.3024 37.9949 11.3196 38.0203 11.3369C38.0345 11.3468 38.0641 11.3483 38.085 11.3421C38.1069 11.3356 38.1159 11.3228 38.1071 11.3113C38.0928 11.2926 38.0786 11.2739 38.0625 11.2555L38.0158 11.2027C37.9983 11.1831 37.9476 11.1769 37.9106 11.1886C37.893 11.1942 37.882 11.2018 37.8774 11.2117C37.8744 11.2162 37.8739 11.2208 37.8758 11.2255C37.8779 11.2317 37.8829 11.2372 37.891 11.2421ZM38.7882 11.6723L39.0336 11.7069L39.0643 11.7113L39.0797 11.7134L39.0874 11.7145L39.0893 11.7157L39.1043 11.7255L39.1334 11.745L39.1864 11.7835C39.2046 11.7968 39.2229 11.8152 39.2427 11.8125C39.257 11.8105 39.277 11.7659 39.268 11.7422C39.2558 11.7111 39.2316 11.6979 39.2098 11.6827C39.1906 11.6693 39.1703 11.6572 39.1492 11.6445C39.1281 11.6321 39.108 11.6196 39.0835 11.6072L38.8407 11.5742C38.7143 11.5569 38.6631 11.6547 38.7882 11.6723ZM39.3282 12.0206C39.3441 12.0206 39.3771 11.9422 39.3581 11.9422C39.3392 11.9423 39.3121 12.0207 39.3282 12.0206ZM39.2444 12.4433C39.2472 12.4445 39.2843 12.398 39.2805 12.3963C39.2766 12.3947 39.2417 12.442 39.2444 12.4433ZM39.2399 12.5461C39.24 12.5479 39.2816 12.5268 39.2815 12.5241C39.2814 12.5214 39.2399 12.5442 39.2399 12.5461ZM40.3577 12.4302C40.3579 12.4884 40.4919 12.4879 40.4917 12.4204C40.4914 12.3529 40.3574 12.3711 40.3577 12.4302ZM40.519 13.9269C40.5192 13.9715 40.5532 13.9778 40.5531 13.9329C40.5529 13.8882 40.5188 13.882 40.519 13.9269ZM42.3741 15.1125C42.3748 15.2998 42.5171 15.2987 42.5164 15.1116C42.5158 14.9244 42.3735 14.9254 42.3741 15.1125ZM42.7061 13.6001C42.7066 13.7347 42.8089 13.7297 42.8084 13.5947C42.8079 13.4602 42.7056 13.4651 42.7061 13.6001ZM41.6924 13.3521L41.6636 13.5723L41.6674 13.5428C41.664 13.5715 41.6608 13.5979 41.6573 13.6264L41.6558 13.6422C41.6535 13.6688 41.6545 13.6869 41.6558 13.7145C41.6575 13.751 41.672 13.7814 41.6887 13.7908C41.7065 13.801 41.7234 13.7881 41.7356 13.7606C41.7407 13.749 41.7462 13.7374 41.7501 13.7238C41.7535 13.712 41.7569 13.6946 41.7594 13.6836C41.7622 13.6704 41.765 13.6572 41.7679 13.6438L41.7817 13.5699L41.8097 13.4176C41.8149 13.3891 41.8105 13.3473 41.8032 13.322C41.7958 13.2963 41.7813 13.2718 41.7667 13.2652C41.7345 13.2504 41.7014 13.2853 41.6924 13.3521ZM41.6379 13.5915C41.6021 13.7348 41.5642 13.8764 41.5327 14.0238C41.5275 14.0484 41.5444 14.0692 41.5509 14.0447C41.5887 13.904 41.6206 13.7565 41.6542 13.6114C41.6594 13.5892 41.6435 13.5692 41.6379 13.5915ZM44.8228 9.69358L44.7777 9.72852C44.7728 9.73229 44.769 9.73877 44.7677 9.75214C44.7666 9.76354 44.7674 9.78077 44.7704 9.79471C44.7776 9.82695 44.7891 9.84721 44.8002 9.84425L44.837 9.83449L44.8314 9.8358L44.8486 9.83171C44.8529 9.83187 44.8565 9.82899 44.8594 9.82309L44.8631 9.81185C44.8666 9.79725 44.8662 9.77412 44.8618 9.75329C44.8536 9.71171 44.8354 9.68382 44.8228 9.69358ZM45.0448 10.1212C45.0786 10.1666 45.1137 10.2119 45.1465 10.2596C45.1632 10.2836 45.18 10.3109 45.1971 10.3306C45.2074 10.3424 45.2182 10.357 45.2287 10.3651C45.2515 10.3834 45.28 10.3769 45.2796 10.2909C45.2795 10.2588 45.2752 10.2261 45.2668 10.2001C45.262 10.1848 45.2564 10.1739 45.25 10.1673C45.2612 10.186 45.2632 10.1874 45.2565 10.1715C45.2489 10.1522 45.243 10.1385 45.2344 10.1242L45.2203 10.1011C45.1992 10.0662 45.1778 10.039 45.156 10.0108C45.1201 9.96491 45.0839 9.92004 45.0473 9.87648C45.0235 9.84786 45.0012 9.89142 45.0021 9.95359C45.003 10.0252 45.0208 10.0887 45.0448 10.1212ZM43.0135 6.19088C43.105 6.22533 43.1705 6.2314 43.1922 6.21565C43.2133 6.20113 43.1912 6.16225 43.0976 6.12551C42.9133 6.05226 42.8289 6.11862 43.0135 6.19088ZM40.2608 5.54751C40.4852 5.54497 40.5514 5.45516 40.32 5.45598C40.0909 5.46016 40.0324 5.55169 40.2608 5.54751ZM38.1235 5.36214C38.1785 5.36083 38.1764 5.31907 38.1216 5.32047C38.0666 5.32178 38.0687 5.36345 38.1235 5.36214ZM45.0727 8.73238C45.0952 8.7847 45.1162 8.76051 45.0936 8.70843C45.0708 8.65585 45.0503 8.68054 45.0727 8.73238ZM45.0074 13.1609C45.0076 13.2234 45.0548 13.2144 45.0546 13.1525C45.0544 13.09 45.0071 13.0989 45.0074 13.1609ZM44.2999 13.8851L44.285 13.9769L44.2886 13.9546L44.2727 14.0477C44.2689 14.0702 44.2664 14.0933 44.2644 14.1167C44.2622 14.143 44.2665 14.1732 44.279 14.1864C44.2907 14.1984 44.3063 14.1968 44.3154 14.1761L44.3288 14.1455C44.3346 14.132 44.3391 14.1166 44.3439 14.1016L44.3634 14.0403L44.357 14.0595L44.3864 13.9707C44.4025 13.9212 44.3925 13.8535 44.3666 13.8279C44.3402 13.8018 44.3094 13.8286 44.2999 13.8851ZM44.6786 11.0659C44.6385 11.2097 44.5954 11.3515 44.5525 11.4899C44.5054 11.6422 44.452 11.7849 44.4181 11.9599C44.4031 12.0373 44.4345 12.1248 44.46 12.0778C44.5162 11.9738 44.5589 11.8101 44.604 11.6609L44.731 11.2308C44.7451 11.1819 44.7476 11.11 44.7324 11.0631C44.7185 11.0208 44.6922 11.0173 44.6786 11.0659ZM43.4714 14.3501C43.4717 14.4273 43.5305 14.4303 43.5302 14.3528C43.5299 14.2755 43.4712 14.2726 43.4714 14.3501ZM35.1828 5.98952L35.2192 5.99247L35.1883 5.98992L35.3498 6.00453L35.4031 6.00896C35.4282 6.01117 35.453 6.0133 35.4782 6.01551C35.5003 6.01601 35.5233 6.0165 35.5455 6.017C35.5788 6.01806 35.6157 6.00338 35.6236 5.98755C35.6318 5.97098 35.6201 5.95252 35.5891 5.94416C35.5591 5.93612 35.5294 5.92824 35.4971 5.92242L35.4204 5.90864L35.4456 5.9134C35.3838 5.90183 35.3219 5.89019 35.2596 5.87855C35.2024 5.86821 35.1267 5.88805 35.1094 5.91725C35.1006 5.93202 35.1001 5.94867 35.1157 5.96204C35.1297 5.97401 35.1535 5.98714 35.1828 5.98952ZM36.1884 5.97689C36.3452 5.97311 36.3489 5.85353 36.1915 5.8573C36.0346 5.86107 36.0309 5.98066 36.1884 5.97689ZM35.7444 5.34934C35.7544 5.3491 35.7526 5.34163 35.7427 5.34179C35.7327 5.34212 35.7345 5.34959 35.7444 5.34934ZM34.3476 5.49468C34.5122 5.49075 34.4963 5.36607 34.332 5.37001C34.1674 5.37395 34.1834 5.49862 34.3476 5.49468ZM34.7208 7.41644C34.8129 7.41422 34.7928 7.34508 34.7016 7.34721C34.6094 7.34943 34.6296 7.41857 34.7208 7.41644ZM35.3766 8.292C35.4458 8.29036 35.4558 8.23722 35.3859 8.23894C35.3167 8.24058 35.3068 8.29373 35.3766 8.292ZM35.4716 9.83703C35.5883 9.88001 35.7058 9.92332 35.8241 9.96687C35.8433 9.97376 35.8699 9.9727 35.8875 9.96425C35.9041 9.95621 35.9088 9.94218 35.8937 9.93324C35.7968 9.87763 35.6981 9.82104 35.5998 9.7647C35.5625 9.74345 35.4927 9.7455 35.4548 9.76691C35.4141 9.78987 35.4264 9.81997 35.4716 9.83703ZM35.8483 11.0512C35.9977 11.0766 36.1477 11.1021 36.2971 11.1276C36.3562 11.1378 36.4001 11.0926 36.3454 11.0776C36.2086 11.0404 36.0711 11.0029 35.9347 10.9656C35.8849 10.9519 35.8213 10.9592 35.7941 10.9862C35.7674 11.0127 35.7937 11.0418 35.8483 11.0512ZM37.8475 12.1375C38.1636 12.1298 38.1711 11.8889 37.8538 11.8965C37.5377 11.904 37.5302 12.1451 37.8475 12.1375ZM39.1091 12.6152C39.1091 12.6152 39.2006 12.5567 39.1999 12.5532C39.1991 12.5495 39.1091 12.6152 39.1091 12.6152ZM39.2983 12.5731L39.3119 12.5743L39.3056 12.5737C39.3156 12.5748 39.3252 12.5764 39.3354 12.5785L39.35 12.5817L39.3588 12.5841L39.3745 12.5866C39.3792 12.5874 39.3841 12.5883 39.3922 12.5884C39.4052 12.5887 39.4238 12.5875 39.4387 12.585C39.4559 12.582 39.4665 12.5774 39.4658 12.5738C39.465 12.5727 39.4651 12.5724 39.4659 12.5728C39.4664 12.573 39.4665 12.5729 39.4662 12.5723C39.4667 12.5716 39.4662 12.5709 39.4662 12.5702C39.4661 12.5638 39.4597 12.5585 39.4541 12.5535L39.4565 12.5562C39.45 12.5488 39.4431 12.5419 39.4353 12.5358C39.4324 12.5334 39.4162 12.5344 39.4019 12.5369C39.3867 12.5395 39.3647 12.5451 39.3479 12.5505C39.3134 12.5616 39.285 12.5724 39.2983 12.5731ZM40.0774 14.9017C40.0778 15.0036 40.1555 15.0097 40.1551 14.907C40.1547 14.805 40.077 14.7991 40.0774 14.9017ZM40.9319 14.4674C40.9322 14.5447 40.991 14.5477 40.9907 14.4702C40.9904 14.3929 40.9316 14.39 40.9319 14.4674ZM40.017 13.3924C40.0174 13.4996 40.099 13.4973 40.0986 13.3899C40.0981 13.2826 40.0166 13.2849 40.017 13.3924ZM40.982 15.5408C40.9828 15.7748 41.161 15.7931 41.1602 15.5581C41.1593 15.3242 40.9811 15.3059 40.982 15.5408ZM41.9877 15.5381C41.988 15.6318 42.0597 15.6489 42.0594 15.5539C42.0591 15.4601 41.9874 15.4432 41.9877 15.5381ZM43.2963 13.7113C43.2967 13.826 43.3836 13.8096 43.3832 13.6955C43.3828 13.5809 43.2959 13.5971 43.2963 13.7113ZM43.5454 15.4336C43.5455 15.466 43.5702 15.4633 43.57 15.4309C43.5699 15.3985 43.5452 15.4013 43.5454 15.4336Z" fill="#474B52"/>
<path d="M43.5343 15.536L43.6934 15.6435C43.7518 15.683 43.8111 15.7314 43.8734 15.7276C43.9124 15.7252 43.927 15.6279 43.895 15.581C43.8791 15.5577 43.8627 15.5315 43.8444 15.5165C43.8278 15.5029 43.8111 15.4883 43.7942 15.4764C43.77 15.46 43.7462 15.4439 43.7221 15.4276L43.578 15.3303C43.5508 15.3118 43.5169 15.3277 43.5057 15.388C43.4959 15.4402 43.505 15.5162 43.5343 15.536ZM43.9402 12.7276C43.9405 12.8049 43.9993 12.8078 43.9991 12.7303C43.9987 12.653 43.9399 12.6501 43.9402 12.7276ZM45.2164 12.0933C45.2168 12.1845 45.2585 12.18 45.2582 12.0882C45.2578 11.9961 45.2161 12.0024 45.2164 12.0933ZM45.4769 9.4238C45.5299 9.65641 45.6465 9.64771 45.5925 9.40641C45.5633 9.28895 45.5184 9.23564 45.4894 9.24073C45.4604 9.24581 45.4487 9.307 45.4769 9.4238ZM43.1025 6.07005C43.2258 6.11795 43.3028 6.12508 43.3227 6.09916C43.3412 6.07587 43.3014 6.01935 43.176 5.96891C42.926 5.86778 42.856 5.97219 43.1025 6.07005Z" fill="#474B52"/>
</g>
</svg>
